<svg xmlns="http://www.w3.org/2000/svg" width="1280" height="760" viewBox="0 0 1280 760" font-family="Segoe UI, Helvetica Neue, Helvetica, Arial, sans-serif" role="img" aria-label="EraseOps architecture in three layers">
<defs><radialGradient id="g" cx=".5" cy=".4" r=".7"><stop offset="0" stop-color="#d9b46a" stop-opacity=".18"/><stop offset="1" stop-color="#d9b46a" stop-opacity="0"/></radialGradient></defs>
<style>.flow{stroke-dasharray:6 8;animation:flow 1.4s linear infinite}.flow-red{stroke-dasharray:6 8;animation:flow 1.4s linear infinite}@keyframes flow{to{stroke-dashoffset:-28}}@media (prefers-reduced-motion: reduce){.flow,.flow-red{animation:none}}</style>
<rect width="1280" height="760" fill="#0d0c0a"/><rect width="1280" height="760" fill="url(#g)"/>
<polygon points="548.0,54.0 667.5,123.0 371.3,294.0 251.8,225.0" fill="#d9b46a" fill-opacity=".06" stroke="#d9b46a" stroke-opacity=".45" stroke-dasharray="5 5"/><text x="238" y="229" text-anchor="end" font-size="13" font-weight="600" fill="#f3d58f">Operators</text>
<polygon points="477.9,112.5 566.2,163.5 566.2,145.5 477.9,94.5" fill="#1a150c" stroke="#d9b46a" stroke-width=".8"/><polygon points="638.9,121.5 566.2,163.5 566.2,145.5 638.9,103.5" fill="#120f09" stroke="#d9b46a" stroke-width=".8"/><polygon points="550.6,52.5 638.9,103.5 566.2,145.5 477.9,94.5" fill="#2a2214" stroke="#d9b46a" stroke-width="1"/><text x="558" y="97" text-anchor="middle" font-size="13.5" font-weight="700" fill="#f4ecdc">Console</text><text x="558" y="113" text-anchor="middle" font-size="11" fill="#cdc2ac">React + React Query</text>
<polygon points="379.1,169.5 467.5,220.5 467.5,202.5 379.1,151.5" fill="#1a150c" stroke="#d9b46a" stroke-width=".8"/><polygon points="540.2,178.5 467.5,220.5 467.5,202.5 540.2,160.5" fill="#120f09" stroke="#d9b46a" stroke-width=".8"/><polygon points="451.9,109.5 540.2,160.5 467.5,202.5 379.1,151.5" fill="#2a2214" stroke="#d9b46a" stroke-width="1"/><text x="460" y="154" text-anchor="middle" font-size="13.5" font-weight="700" fill="#f4ecdc">Command bar</text><text x="460" y="170" text-anchor="middle" font-size="11" fill="#cdc2ac">typed or spoken</text>
<polygon points="280.4,226.5 368.7,277.5 368.7,259.5 280.4,208.5" fill="#13110e" stroke="#463e31" stroke-width=".8"/><polygon points="441.5,235.5 368.7,277.5 368.7,259.5 441.5,217.5" fill="#0d0c0a" stroke="#463e31" stroke-width=".8"/><polygon points="353.1,166.5 441.5,217.5 368.7,259.5 280.4,208.5" fill="#1f1c17" stroke="#463e31" stroke-width="1"/><text x="361" y="211" text-anchor="middle" font-size="13.5" font-weight="700" fill="#f4ecdc">MCP client</text><text x="361" y="227" text-anchor="middle" font-size="11" fill="#cdc2ac">stdio, JSON-RPC</text>
<polygon points="729.9,207.0 849.4,276.0 553.2,447.0 433.7,378.0" fill="#d9b46a" fill-opacity=".06" stroke="#d9b46a" stroke-opacity=".45" stroke-dasharray="5 5"/><text x="420" y="382" text-anchor="end" font-size="13" font-weight="600" fill="#f3d58f">EraseOps</text>
<polygon points="659.7,265.5 748.1,316.5 748.1,292.5 659.7,241.5" fill="#0d0b09" stroke="#463e31" stroke-width=".8"/><polygon points="820.8,274.5 748.1,316.5 748.1,292.5 820.8,250.5" fill="#090806" stroke="#463e31" stroke-width=".8"/><polygon points="732.5,199.5 820.8,250.5 748.1,292.5 659.7,241.5" fill="#15130f" stroke="#463e31" stroke-width="1"/><text x="740" y="244" text-anchor="middle" font-size="13.5" font-weight="700" fill="#f4ecdc">API</text><text x="740" y="260" text-anchor="middle" font-size="11" fill="#cdc2ac">Express, guarded routes</text>
<polygon points="561.0,322.5 649.3,373.5 649.3,349.5 561.0,298.5" fill="#1a1107" stroke="#e8913f" stroke-width=".8"/><polygon points="722.1,331.5 649.3,373.5 649.3,349.5 722.1,307.5" fill="#130d05" stroke="#e8913f" stroke-width=".8"/><polygon points="633.7,256.5 722.1,307.5 649.3,349.5 561.0,298.5" fill="#2b1d0c" stroke="#e8913f" stroke-width="1"/><text x="642" y="301" text-anchor="middle" font-size="13.5" font-weight="700" fill="#f4ecdc">Policy + sandbox</text><text x="642" y="317" text-anchor="middle" font-size="11" fill="#cdc2ac">retention, simulation</text>
<polygon points="462.3,379.5 550.6,430.5 550.6,406.5 462.3,355.5" fill="#10160d" stroke="#93cf8c" stroke-width=".8"/><polygon points="623.3,388.5 550.6,430.5 550.6,406.5 623.3,364.5" fill="#0c1009" stroke="#93cf8c" stroke-width=".8"/><polygon points="535.0,313.5 623.3,364.5 550.6,406.5 462.3,355.5" fill="#1b2416" stroke="#93cf8c" stroke-width="1"/><text x="543" y="358" text-anchor="middle" font-size="13.5" font-weight="700" fill="#f4ecdc">Backup + audit</text><text x="543" y="374" text-anchor="middle" font-size="11" fill="#cdc2ac">checksums, hash chain</text>
<polygon points="911.7,360.0 1031.2,429.0 735.1,600.0 615.5,531.0" fill="#d9b46a" fill-opacity=".06" stroke="#d9b46a" stroke-opacity=".45" stroke-dasharray="5 5"/><text x="602" y="535" text-anchor="end" font-size="13" font-weight="600" fill="#f3d58f">Data systems</text>
<polygon points="792.2,447.0 880.6,498.0 880.6,459.0 792.2,408.0" fill="#11100c" stroke="#bcae94" stroke-width=".8"/><polygon points="1002.7,427.5 880.6,498.0 880.6,459.0 1002.7,388.5" fill="#0d0b09" stroke="#bcae94" stroke-width=".8"/><polygon points="914.3,337.5 1002.7,388.5 880.6,459.0 792.2,408.0" fill="#1d1a14" stroke="#bcae94" stroke-width="1"/><text x="897" y="396" text-anchor="middle" font-size="13.5" font-weight="700" fill="#f4ecdc">PostgreSQL</text><text x="897" y="412" text-anchor="middle" font-size="11" fill="#cdc2ac">13 tables, FK-enforced</text>
<polygon points="644.1,532.5 732.5,583.5 732.5,544.5 644.1,493.5" fill="#11100c" stroke="#bcae94" stroke-width=".8"/><polygon points="854.6,513.0 732.5,583.5 732.5,544.5 854.6,474.0" fill="#0d0b09" stroke="#bcae94" stroke-width=".8"/><polygon points="766.2,423.0 854.6,474.0 732.5,544.5 644.1,493.5" fill="#1d1a14" stroke="#bcae94" stroke-width="1"/><text x="749" y="482" text-anchor="middle" font-size="13.5" font-weight="700" fill="#f4ecdc">MinIO</text><text x="749" y="498" text-anchor="middle" font-size="11" fill="#cdc2ac">3 buckets + backups</text>
<path class="flow" d="M603,176 C663,196 636,220 696,250" stroke="#d9b46a" stroke-width="2" fill="none" opacity=".85"/>
<path class="flow" d="M504,232 C564,252 636,220 696,250" stroke="#d9b46a" stroke-width="2" fill="none" opacity=".85"/>
<path class="flow" d="M405,290 C465,310 537,278 597,308" stroke="#d9b46a" stroke-width="2" fill="none" opacity=".85"/>
<path class="flow" d="M784,302 C844,322 793,356 853,386" stroke="#bcae94" stroke-width="2" fill="none" opacity=".85"/>
<path class="flow" d="M686,359 C746,379 793,356 853,386" stroke="#bcae94" stroke-width="2" fill="none" opacity=".85"/>
<path class="flow" d="M587,416 C647,436 645,442 705,472" stroke="#bcae94" stroke-width="2" fill="none" opacity=".85"/>
<g transform="translate(40,690)" font-size="13" fill="#cdc2ac">
<text x="0" y="0" font-weight="700" fill="#f4ecdc">One request, start to finish:</text>
<text x="0" y="22">discover → classify by policy → rehearse on a copy (rolled-back transaction) → verified backup → human approval of one plan hash → guarded execution → rescan → sealed audit chain</text>
</g>
</svg>